<?xml version="1.0" encoding="UTF-8"?><svg id="Layer_2" xmlns="http://www.w3.org/2000/svg" viewBox="0 0 260.06 275.58"><defs><style>.cls-1{fill:#fff;}</style></defs><g id="Layer_1-2"><g><path class="cls-1" d="M232.54,98.8v93.54h-63.38v-13.78l-.07,.07V6.65c38.41,13.92,63.44,48.59,63.44,92.15Z"/><path class="cls-1" d="M94.6,99.15c0,19.39,14.16,35.81,35.43,35.81,4.05,0,7.86-.59,11.36-1.7v61.71c-6.82,1.97-14.34,2.98-22.54,2.98-54.41,0-91.32-44.74-91.32-99.15S71.89,0,130.03,0c3.84,0,7.65,.17,11.36,.52V64.69c-3.5-1.11-7.31-1.7-11.36-1.7-21.26,0-35.43,16.42-35.43,36.15Z"/></g><g><path class="cls-1" d="M16.34,220.82c2.35-7.8,8.92-11.46,15.5-11.46s13.15,3.66,15.5,11.46l16.34,53.35h-17.75l-2.91-10.71H20.76l-3.01,10.71H0l16.34-53.35Zm8.73,27.14h13.62l-6.01-22.07c-.19-.66-.38-.94-.75-.94s-.56,.28-.75,.94l-6.11,22.07Z"/><path class="cls-1" d="M88.56,205.61v68.56h-16.91v-68.56h16.91Z"/><path class="cls-1" d="M131.39,248.25v-21.04h16.91v23.1c0,13.81-8.08,25.26-24.7,25.26s-24.7-11.46-24.7-25.26v-23.1h16.91v21.04c0,5.92,2.35,10.89,7.79,10.89s7.79-4.98,7.79-10.89Z"/><path class="cls-1" d="M153.08,274.17l10.24-17.84c1.41-2.44,2.07-4.04,2.07-5.54,0-1.41-.56-2.82-1.78-4.88l-10.61-18.69h19.07l6.57,12.21c.66,1.13,1.13,2.35,1.6,3.57h2.72c.47-1.22,.94-2.44,1.6-3.57l6.57-12.21h19.07l-10.61,18.69c-1.22,2.07-1.78,3.47-1.78,4.88,0,1.5,.66,3.1,2.07,5.54l10.24,17.84h-18.88l-6.67-11.93c-.75-1.31-1.31-2.72-1.78-4.23h-2.35c-.47,1.5-1.03,2.91-1.78,4.23l-6.67,11.93h-18.88Z"/><path class="cls-1" d="M211.13,250.13c0-13.52,10.14-24.79,24.98-24.79s23.95,11.46,23.95,24.04v4.23h-32.68c1.13,4.7,4.7,7.51,9.86,7.51,4.51,0,8.08-2.44,9.77-6.1l12.96,6.48c-4.04,8.73-12.02,13.99-22.54,13.99-15.03,0-26.3-9.96-26.3-25.36Zm32.12-5.26c-.75-2.63-3.38-5.07-7.33-5.07s-6.76,2.35-7.8,5.07h15.12Z"/></g></g></svg>